<?xml version="1.0" standalone="no"?><svg xmlns="http://www.w3.org/2000/svg" viewBox="0 0 1440 320"><path fill="#ffff" fill-opacity="0.2" d="M0,128L20,122.7C40,117,80,107,120,101.3C160,96,200,96,240,85.3C280,75,320,53,360,37.3C400,21,440,11,480,32C520,53,560,107,600,144C640,181,680,203,720,176C760,149,800,75,840,74.7C880,75,920,149,960,181.3C1000,213,1040,203,1080,176C1120,149,1160,107,1200,90.7C1240,75,1280,85,1320,90.7C1360,96,1400,96,1420,96L1440,96L1440,320L1420,320C1400,320,1360,320,1320,320C1280,320,1240,320,1200,320C1160,320,1120,320,1080,320C1040,320,1000,320,960,320C920,320,880,320,840,320C800,320,760,320,720,320C680,320,640,320,600,320C560,320,520,320,480,320C440,320,400,320,360,320C320,320,280,320,240,320C200,320,160,320,120,320C80,320,40,320,20,320L0,320Z"></path></svg>